/* XPM */
static char *result[] = {
/* columns rows colors chars-per-pixel */
"64 64 4 1 ",
"  c #393939",
". c #846B18",
"X c #AD8C39",
"o c #D6C68C",
/* pixels */
"XXXXooooXXXXooooXXXXoooooooo        ooooXXXXooooXXXXoooooooooooo",
"XXXXooooXXXXooooXXXXoooooooo        ooooXXXXooooXXXXoooooooooooo",
"XXXXooooXXXXooooXXXXoooooooo        ooooXXXXooooXXXXoooooooooooo",
"XXXXooooXXXXooooXXXXoooooooo        ooooXXXXooooXXXXoooooooooooo",
"ooooXXXX....XXXXooooXXXX    ooooXXXX    ....XXXXooooXXXXooooXXXX",
"ooooXXXX....XXXXooooXXXX    ooooXXXX    ....XXXXooooXXXXooooXXXX",
"ooooXXXX....XXXXooooXXXX    ooooXXXX    ....XXXXooooXXXXooooXXXX",
"ooooXXXX....XXXXooooXXXX    ooooXXXX    ....XXXXooooXXXXooooXXXX",
"XXXXooooXXXXoooo....    oooo        XXXX    oooo....ooooXXXXoooo",
"XXXXooooXXXXoooo....    oooo        XXXX    oooo....ooooXXXXoooo",
"XXXXooooXXXXoooo....    oooo        XXXX    oooo....ooooXXXXoooo",
"XXXXooooXXXXoooo....    oooo        XXXX    oooo....ooooXXXXoooo",
"ooooooooooooXXXXoooo    oooo        XXXX    XXXX        oooooooo",
"ooooooooooooXXXXoooo    oooo        XXXX    XXXX        oooooooo",
"ooooooooooooXXXXoooo    oooo        XXXX    XXXX        oooooooo",
"ooooooooooooXXXXoooo    oooo        XXXX    XXXX        oooooooo",
"XXXXooooXXXXooooXXXX    oooo            XXXX    oooooooo    oooo",
"XXXXooooXXXXooooXXXX    oooo            XXXX    oooooooo    oooo",
"XXXXooooXXXXooooXXXX    oooo            XXXX    oooooooo    oooo",
"XXXXooooXXXXooooXXXX    oooo            XXXX    oooooooo    oooo",
"ooooXXXXooooXXXX        XXXXoooo            oooo        XXXXXXXX",
"ooooXXXXooooXXXX        XXXXoooo            oooo        XXXXXXXX",
"ooooXXXXooooXXXX        XXXXoooo            oooo        XXXXXXXX",
"ooooXXXXooooXXXX        XXXXoooo            oooo        XXXXXXXX",
"oooooooo                XXXX    oooo        oooo        XXXXoooo",
"oooooooo                XXXX    oooo        oooo        XXXXoooo",
"oooooooo                XXXX    oooo        oooo        XXXXoooo",
"oooooooo                XXXX    oooo        oooo        XXXXoooo",
"oooo            ....    XXXX        oooo    oooo            oooo",
"oooo            ....    XXXX        oooo    oooo            oooo",
"oooo            ....    XXXX        oooo    oooo            oooo",
"oooo            ....    XXXX        oooo    oooo            oooo",
"XXXX        ....        XXXXXXXX        oooooooo        oooooooo",
"XXXX        ....        XXXXXXXX        oooooooo        oooooooo",
"XXXX        ....        XXXXXXXX        oooooooo        oooooooo",
"XXXX        ....        XXXXXXXX        oooooooo        oooooooo",
"        ....    ....    XXXX    XXXX        XXXX            XXXX",
"        ....    ....    XXXX    XXXX        XXXX            XXXX",
"        ....    ....    XXXX    XXXX        XXXX            XXXX",
"        ....    ....    XXXX    XXXX        XXXX            XXXX",
"    ....    ....        ....        XXXX    XXXX            oooo",
"    ....    ....        ....        XXXX    XXXX            oooo",
"    ....    ....        ....        XXXX    XXXX            oooo",
"    ....    ....        ....        XXXX    XXXX            oooo",
"        ....            ........        XXXXXXXX            oooo",
"        ....            ........        XXXXXXXX            oooo",
"        ....            ........        XXXXXXXX            oooo",
"        ....            ........        XXXXXXXX            oooo",
"XXXX                    ....    ....        XXXX        XXXXoooo",
"XXXX                    ....    ....        XXXX        XXXXoooo",
"XXXX                    ....    ....        XXXX        XXXXoooo",
"XXXX                    ....    ....        XXXX        XXXXoooo",
"oooo    ....                        ....    XXXX        ....XXXX",
"oooo    ....                        ....    XXXX        ....XXXX",
"oooo    ....                        ....    XXXX        ....XXXX",
"oooo    ....                        ....    XXXX        ....XXXX",
"oooooooo                                            ooooXXXXoooo",
"oooooooo                                            ooooXXXXoooo",
"oooooooo                                            ooooXXXXoooo",
"oooooooo                                            ooooXXXXoooo",
"ooooooooooooXXXX                            XXXXooooXXXXoooooooo",
"ooooooooooooXXXX                            XXXXooooXXXXoooooooo",
"ooooooooooooXXXX                            XXXXooooXXXXoooooooo",
"ooooooooooooXXXX                            XXXXooooXXXXoooooooo"
};
