/* XPM */
static char *result[] = {
/* columns rows colors chars-per-pixel */
"64 64 4 1 ",
"  c #393939",
". c #846B18",
"X c #AD8C39",
"o c #D6C68C",
/* pixels */
"XXXXooooXXXX    XXXXXXXX    ooooXXXXooooXXXXooooXXXXoooooooooooo",
"XXXXooooXXXX    XXXXXXXX    ooooXXXXooooXXXXooooXXXXoooooooooooo",
"XXXXooooXXXX    XXXXXXXX    ooooXXXXooooXXXXooooXXXXoooooooooooo",
"XXXXooooXXXX    XXXXXXXX    ooooXXXXooooXXXXooooXXXXoooooooooooo",
"ooooXXXX....    XXXX    XXXX    ooooXXXX....XXXXooooXXXXooooXXXX",
"ooooXXXX....    XXXX    XXXX    ooooXXXX....XXXXooooXXXXooooXXXX",
"ooooXXXX....    XXXX    XXXX    ooooXXXX....XXXXooooXXXXooooXXXX",
"ooooXXXX....    XXXX    XXXX    ooooXXXX....XXXXooooXXXXooooXXXX",
"XXXXooooXXXX    XXXX        XXXX        XXXXoooo....ooooXXXXoooo",
"XXXXooooXXXX    XXXX        XXXX        XXXXoooo....ooooXXXXoooo",
"XXXXooooXXXX    XXXX        XXXX        XXXXoooo....ooooXXXXoooo",
"XXXXooooXXXX    XXXX        XXXX        XXXXoooo....ooooXXXXoooo",
"oooooooooooo    ooooXXXX        XXXXXXXX    XXXXooooXXXXoooooooo",
"oooooooooooo    ooooXXXX        XXXXXXXX    XXXXooooXXXXoooooooo",
"oooooooooooo    ooooXXXX        XXXXXXXX    XXXXooooXXXXoooooooo",
"oooooooooooo    ooooXXXX        XXXXXXXX    XXXXooooXXXXoooooooo",
"XXXXooooXXXX    oooo    oooo        XXXX    ooooXXXXooooXXXXoooo",
"XXXXooooXXXX    oooo    oooo        XXXX    ooooXXXXooooXXXXoooo",
"XXXXooooXXXX    oooo    oooo        XXXX    ooooXXXXooooXXXXoooo",
"XXXXooooXXXX    oooo    oooo        XXXX    ooooXXXXooooXXXXoooo",
"ooooXXXXoooo    oooo        oooo    XXXX    XXXXooooXXXX....XXXX",
"ooooXXXXoooo    oooo        oooo    XXXX    XXXXooooXXXX....XXXX",
"ooooXXXXoooo    oooo        oooo    XXXX    XXXXooooXXXX....XXXX",
"ooooXXXXoooo    oooo        oooo    XXXX    XXXXooooXXXX....XXXX",
"oooooooooooo    ooooXXXX        ooooXXXX    ooooXXXXooooXXXXoooo",
"oooooooooooo    ooooXXXX        ooooXXXX    ooooXXXXooooXXXXoooo",
"oooooooooooo    ooooXXXX        ooooXXXX    ooooXXXXooooXXXXoooo",
"oooooooooooo    ooooXXXX        ooooXXXX    ooooXXXXooooXXXXoooo",
"oooooooooooo    oooo    oooo        oooo    XXXXooooXXXXoooooooo",
"oooooooooooo    oooo    oooo        oooo    XXXXooooXXXXoooooooo",
"oooooooooooo    oooo    oooo        oooo    XXXXooooXXXXoooooooo",
"oooooooooooo    oooo    oooo        oooo    XXXXooooXXXXoooooooo",
"XXXXooooXXXX    oooo        oooo    oooo        XXXXoooooooooooo",
"XXXXooooXXXX    oooo        oooo    oooo        XXXXoooooooooooo",
"XXXXooooXXXX    oooo        oooo    oooo        XXXXoooooooooooo",
"XXXXooooXXXX    oooo        oooo    oooo        XXXXoooooooooooo",
"ooooXXXX....    ooooXXXX        XXXXoooo    XXXX        ooooXXXX",
"ooooXXXX....    ooooXXXX        XXXXoooo    XXXX        ooooXXXX",
"ooooXXXX....    ooooXXXX        XXXXoooo    XXXX        ooooXXXX",
"ooooXXXX....    ooooXXXX        XXXXoooo    XXXX        ooooXXXX",
"XXXXooooXXXX    oooo    oooo        oooo        ....oooo        ",
"XXXXooooXXXX    oooo    oooo        oooo        ....oooo        ",
"XXXXooooXXXX    oooo    oooo        oooo        ....oooo        ",
"XXXXooooXXXX    oooo    oooo        oooo        ....oooo        ",
"oooooooooooo        XXXX    oooo    oooo    XXXX            oooo",
"oooooooooooo        XXXX    oooo    oooo    XXXX            oooo",
"oooooooooooo        XXXX    oooo    oooo    XXXX            oooo",
"oooooooooooo        XXXX    oooo    oooo    XXXX            oooo",
"XXXXooooXXXXooooXXXXooooXXXX    oooooooo                XXXXoooo",
"XXXXooooXXXXooooXXXXooooXXXX    oooooooo                XXXXoooo",
"XXXXooooXXXXooooXXXXooooXXXX    oooooooo                XXXXoooo",
"XXXXooooXXXXooooXXXXooooXXXX    oooooooo                XXXXoooo",
"ooooXXXXooooXXXXooooXXXX....XXXX    oooo            XXXX....XXXX",
"ooooXXXXooooXXXXooooXXXX....XXXX    oooo            XXXX....XXXX",
"ooooXXXXooooXXXXooooXXXX....XXXX    oooo            XXXX....XXXX",
"ooooXXXXooooXXXXooooXXXX....XXXX    oooo            XXXX....XXXX",
"ooooooooooooooooXXXXooooXXXXoooo    oooo        XXXXooooXXXXoooo",
"ooooooooooooooooXXXXooooXXXXoooo    oooo        XXXXooooXXXXoooo",
"ooooooooooooooooXXXXooooXXXXoooo    oooo        XXXXooooXXXXoooo",
"ooooooooooooooooXXXXooooXXXXoooo    oooo        XXXXooooXXXXoooo",
"ooooooooooooXXXXooooXXXXoooooooo            XXXXooooXXXXoooooooo",
"ooooooooooooXXXXooooXXXXoooooooo            XXXXooooXXXXoooooooo",
"ooooooooooooXXXXooooXXXXoooooooo            XXXXooooXXXXoooooooo",
"ooooooooooooXXXXooooXXXXoooooooo            XXXXooooXXXXoooooooo"
};
