/* XPM */
static char *result[] = {
/* columns rows colors chars-per-pixel */
"64 64 3 1 ",
"  c #297300",
". c #63CE08",
"X c #B5FF52",
/* pixels */
"....XXXX....XXXX....XXXXXXXXXXXX....XXXX....XXXX....XXXXXXXXXXXX",
"....XXXX....XXXX....XXXXXXXXXXXX....XXXX....XXXX....XXXXXXXXXXXX",
"....XXXX....XXXX....XXXXXXXXXXXX....XXXX....XXXX....XXXXXXXXXXXX",
"....XXXX....XXXX....XXXXXXXXXXXX....XXXX....XXXX....XXXXXXXXXXXX",
"XXXX....    ....XXXX....XXXX....XXXX....    ....XXXX....XXXX....",
"XXXX....    ....XXXX....XXXX....XXXX....    ....XXXX....XXXX....",
"XXXX....    ....XXXX....XXXX....XXXX....    ....XXXX....XXXX....",
"XXXX....    ....XXXX....XXXX....XXXX....    ....XXXX....XXXX....",
"....XXXX....XXXX    XXXX....XXXX....XXXX....XXXX    XXXX....XXXX",
"....XXXX....XXXX    XXXX....XXXX....XXXX....XXXX    XXXX....XXXX",
"....XXXX....XXXX    XXXX....XXXX....XXXX....XXXX    XXXX....XXXX",
"....XXXX....XXXX    XXXX....XXXX....XXXX....XXXX    XXXX....XXXX",
"XXXXXXXXXXXX....XXXX....XXXXXXXXXXXXXXXXXXXX....XXXX....XXXXXXXX",
"XXXXXXXXXXXX....XXXX....XXXXXXXXXXXXXXXXXXXX....XXXX....XXXXXXXX",
"XXXXXXXXXXXX....XXXX....XXXXXXXXXXXXXXXXXXXX....XXXX....XXXXXXXX",
"XXXXXXXXXXXX....XXXX....XXXXXXXXXXXXXXXXXXXX....XXXX....XXXXXXXX",
"....XXXX....XXXX....XXXX....XXXX....XXXX....XXXX....XXXX....XXXX",
"....XXXX....XXXX....XXXX....XXXX....XXXX....XXXX....XXXX....XXXX",
"....XXXX....XXXX....XXXX....XXXX....XXXX....XXXX....XXXX....XXXX",
"....XXXX....XXXX....XXXX....XXXX....XXXX....XXXX....XXXX....XXXX",
"XXXX....XXXX....XXXX....    ....XXXX....XXXX....XXXX....    ....",
"XXXX....XXXX....XXXX....    ....XXXX....XXXX....XXXX....    ....",
"XXXX....XXXX....XXXX....    ....XXXX....XXXX....XXXX....    ....",
"XXXX....XXXX....XXXX....    ....XXXX....XXXX....XXXX....    ....",
"XXXXXXXXXXXXXXXX....XXXX....XXXXXXXXXXXXXXXXXXXX....XXXX....XXXX",
"XXXXXXXXXXXXXXXX....XXXX....XXXXXXXXXXXXXXXXXXXX....XXXX....XXXX",
"XXXXXXXXXXXXXXXX....XXXX....XXXXXXXXXXXXXXXXXXXX....XXXX....XXXX",
"XXXXXXXXXXXXXXXX....XXXX....XXXXXXXXXXXXXXXXXXXX....XXXX....XXXX",
"XXXXXXXXXXXX....XXXX....XXXXXXXXXXXXXXXXXXXX....XXXX....XXXXXXXX",
"XXXXXXXXXXXX....XXXX....XXXXXXXXXXXXXXXXXXXX....XXXX....XXXXXXXX",
"XXXXXXXXXXXX....XXXX....XXXXXXXXXXXXXXXXXXXX....XXXX....XXXXXXXX",
"XXXXXXXXXXXX....XXXX....XXXXXXXXXXXXXXXXXXXX....XXXX....XXXXXXXX",
"....XXXX....XXXX....XXXXXXXXXXXX....XXXX....XXXX....XXXXXXXXXXXX",
"....XXXX....XXXX....XXXXXXXXXXXX....XXXX....XXXX....XXXXXXXXXXXX",
"....XXXX....XXXX....XXXXXXXXXXXX....XXXX....XXXX....XXXXXXXXXXXX",
"....XXXX....XXXX....XXXXXXXXXXXX....XXXX....XXXX....XXXXXXXXXXXX",
"XXXX....    ....XXXX....XXXX....XXXX....    ....XXXX....XXXX....",
"XXXX....    ....XXXX....XXXX....XXXX....    ....XXXX....XXXX....",
"XXXX....    ....XXXX....XXXX....XXXX....    ....XXXX....XXXX....",
"XXXX....    ....XXXX....XXXX....XXXX....    ....XXXX....XXXX....",
"....XXXX....XXXX    XXXX....XXXX....XXXX....XXXX    XXXX....XXXX",
"....XXXX....XXXX    XXXX....XXXX....XXXX....XXXX    XXXX....XXXX",
"....XXXX....XXXX    XXXX....XXXX....XXXX....XXXX    XXXX....XXXX",
"....XXXX....XXXX    XXXX....XXXX....XXXX....XXXX    XXXX....XXXX",
"XXXXXXXXXXXX....XXXX....XXXXXXXXXXXXXXXXXXXX....XXXX....XXXXXXXX",
"XXXXXXXXXXXX....XXXX....XXXXXXXXXXXXXXXXXXXX....XXXX....XXXXXXXX",
"XXXXXXXXXXXX....XXXX....XXXXXXXXXXXXXXXXXXXX....XXXX....XXXXXXXX",
"XXXXXXXXXXXX....XXXX....XXXXXXXXXXXXXXXXXXXX....XXXX....XXXXXXXX",
"....XXXX....XXXX....XXXX....XXXX....XXXX....XXXX....XXXX....XXXX",
"....XXXX....XXXX....XXXX....XXXX....XXXX....XXXX....XXXX....XXXX",
"....XXXX....XXXX....XXXX....XXXX....XXXX....XXXX....XXXX....XXXX",
"....XXXX....XXXX....XXXX....XXXX....XXXX....XXXX....XXXX....XXXX",
"XXXX....XXXX....XXXX....    ....XXXX....XXXX....XXXX....    ....",
"XXXX....XXXX....XXXX....    ....XXXX....XXXX....XXXX....    ....",
"XXXX....XXXX....XXXX....    ....XXXX....XXXX....XXXX....    ....",
"XXXX....XXXX....XXXX....    ....XXXX....XXXX....XXXX....    ....",
"XXXXXXXXXXXXXXXX....XXXX....XXXXXXXXXXXXXXXXXXXX....XXXX....XXXX",
"XXXXXXXXXXXXXXXX....XXXX....XXXXXXXXXXXXXXXXXXXX....XXXX....XXXX",
"XXXXXXXXXXXXXXXX....XXXX....XXXXXXXXXXXXXXXXXXXX....XXXX....XXXX",
"XXXXXXXXXXXXXXXX....XXXX....XXXXXXXXXXXXXXXXXXXX....XXXX....XXXX",
"XXXXXXXXXXXX....XXXX....XXXXXXXXXXXXXXXXXXXX....XXXX....XXXXXXXX",
"XXXXXXXXXXXX....XXXX....XXXXXXXXXXXXXXXXXXXX....XXXX....XXXXXXXX",
"XXXXXXXXXXXX....XXXX....XXXXXXXXXXXXXXXXXXXX....XXXX....XXXXXXXX",
"XXXXXXXXXXXX....XXXX....XXXXXXXXXXXXXXXXXXXX....XXXX....XXXXXXXX"
};
