/* XPM */
static char *result[] = {
/* columns rows colors chars-per-pixel */
"16 16 4 1 ",
"  c #393939",
". c #846B18",
"X c #AD8C39",
"o c #D6C68C",
/* pixels */
"XoXoXoo  oXoXooo",
"oX.XoX oX .XoXoX",
"XoXo. o  X o.oXo",
"oooXo o  X X  oo",
"XoXoX o   X oo o",
"oXoX  Xo   o  XX",
"oo    X o  o  Xo",
"o   . X  o o   o",
"X  .  XX  oo  oo",
"  . . X X  X   X",
" . .  .  X X   o",
"  .   ..  XX   o",
"X     . .  X  Xo",
"o .      . X  .X",
"oo           oXo",
"oooX       XoXoo"
};
