/* XPM */
static char *result[] = {
/* columns rows colors chars-per-pixel */
"16 16 3 1 ",
"  c #297300",
". c #63CE08",
"X c #B5FF52",
/* pixels */
".X.X.XXX.X.X.XXX",
"X. .X.X.X. .X.X.",
".X.X X.X.X.X X.X",
"XXX.X.XXXXX.X.XX",
".X.X.X.X.X.X.X.X",
"X.X.X. .X.X.X. .",
"XXXX.X.XXXXX.X.X",
"XXX.X.XXXXX.X.XX",
".X.X.XXX.X.X.XXX",
"X. .X.X.X. .X.X.",
".X.X X.X.X.X X.X",
"XXX.X.XXXXX.X.XX",
".X.X.X.X.X.X.X.X",
"X.X.X. .X.X.X. .",
"XXXX.X.XXXXX.X.X",
"XXX.X.XXXXX.X.XX"
};
