/* XPM */
static char *result[] = {
/* columns rows colors chars-per-pixel */
"12 12 4 1 ",
"  c black",
". c #F83808",
"X c #F89850",
"o c None",
/* pixels */
"oooo    oooo",
"oo  ....  oo",
"o ...XX... o",
"o ...XX... o",
" .......... ",
" .......... ",
" XX......XX ",
" XXXXXXXXXX ",
"o XXXXXXXX o",
"o XXXXXXXX o",
"oo  XXXX  oo",
"oooo    oooo"
};
