/* XPM */
static char *result[] = {
/* columns rows colors chars-per-pixel */
"64 64 4 1 ",
"  c #000001",
". c #F83808",
"X c #F89850",
"o c #B5FF52",
/* pixels */
"oooooooooooooooooooooooooooooooooooooooooooooooooooooooooooooooo",
"oooooooooooooooooooooooooooooooooooooooooooooooooooooooooooooooo",
"oooooooooooooooooooooooooooooooooooooooooooooooooooooooooooooooo",
"oooooooooooooooooooooooooooooooooooooooooooooooooooooooooooooooo",
"oooooooooooooooooooooooo                oooooooooooooooooooooooo",
"oooooooooooooooooooooooo                oooooooooooooooooooooooo",
"oooooooooooooooooooooooo                oooooooooooooooooooooooo",
"oooooooooooooooooooooooo                oooooooooooooooooooooooo",
"oooooooooooooooo        ................        oooooooooooooooo",
"oooooooooooooooo        ................        oooooooooooooooo",
"oooooooooooooooo        ................        oooooooooooooooo",
"oooooooooooooooo        ................        oooooooooooooooo",
"oooooooooooo    ................................    oooooooooooo",
"oooooooooooo    ................................    oooooooooooo",
"oooooooooooo    ................................    oooooooooooo",
"oooooooooooo    ................................    oooooooooooo",
"oooooooo    ................        ................    oooooooo",
"oooooooo    ................        ................    oooooooo",
"oooooooo    ................        ................    oooooooo",
"oooooooo    ................        ................    oooooooo",
"oooooooo    ............    XXXXXXXX    ............    oooooooo",
"oooooooo    ............    XXXXXXXX    ............    oooooooo",
"oooooooo    ............    XXXXXXXX    ............    oooooooo",
"oooooooo    ............    XXXXXXXX    ............    oooooooo",
"oooo    ........        XXXXXXXXXXXXXXXX        ........    oooo",
"oooo    ........        XXXXXXXXXXXXXXXX        ........    oooo",
"oooo    ........        XXXXXXXXXXXXXXXX        ........    oooo",
"oooo    ........        XXXXXXXXXXXXXXXX        ........    oooo",
"oooo    ....    XXXXXXXXXXXXXXXXXXXXXXXXXXXXXXXX    ....    oooo",
"oooo    ....    XXXXXXXXXXXXXXXXXXXXXXXXXXXXXXXX    ....    oooo",
"oooo    ....    XXXXXXXXXXXXXXXXXXXXXXXXXXXXXXXX    ....    oooo",
"oooo    ....    XXXXXXXXXXXXXXXXXXXXXXXXXXXXXXXX    ....    oooo",
"oooo    ....    XXXX        XXXXXXXX        XXXX    ....    oooo",
"oooo    ....    XXXX        XXXXXXXX        XXXX    ....    oooo",
"oooo    ....    XXXX        XXXXXXXX        XXXX    ....    oooo",
"oooo    ....    XXXX        XXXXXXXX        XXXX    ....    oooo",
"oooo    ....    XXXXXXXX    XXXXXXXX    XXXXXXXX    ....    oooo",
"oooo    ....    XXXXXXXX    XXXXXXXX    XXXXXXXX    ....    oooo",
"oooo    ....    XXXXXXXX    XXXXXXXX    XXXXXXXX    ....    oooo",
"oooo    ....    XXXXXXXX    XXXXXXXX    XXXXXXXX    ....    oooo",
"oooooooo    ....    XXXXXXXX........XXXXXXXX    ....    oooooooo",
"oooooooo    ....    XXXXXXXX........XXXXXXXX    ....    oooooooo",
"oooooooo    ....    XXXXXXXX........XXXXXXXX    ....    oooooooo",
"oooooooo    ....    XXXXXXXX........XXXXXXXX    ....    oooooooo",
"oooooooo        XXXX                                    oooooooo",
"oooooooo        XXXX                                    oooooooo",
"oooooooo        XXXX                                    oooooooo",
"oooooooo        XXXX                                    oooooooo",
"oooooooooooooooo    ........            XXXXXXXX    oooooooooooo",
"oooooooooooooooo    ........            XXXXXXXX    oooooooooooo",
"oooooooooooooooo    ........            XXXXXXXX    oooooooooooo",
"oooooooooooooooo    ........            XXXXXXXX    oooooooooooo",
"oooooooooooooooo            ........    XXXXXXXX    oooooooooooo",
"oooooooooooooooo            ........    XXXXXXXX    oooooooooooo",
"oooooooooooooooo            ........    XXXXXXXX    oooooooooooo",
"oooooooooooooooo            ........    XXXXXXXX    oooooooooooo",
"oooooooooooooooo    ....            oooo        oooooooooooooooo",
"oooooooooooooooo    ....            oooo        oooooooooooooooo",
"oooooooooooooooo    ....            oooo        oooooooooooooooo",
"oooooooooooooooo    ....            oooo        oooooooooooooooo",
"oooooooooooooooooooo            oooooooooooooooooooooooooooooooo",
"oooooooooooooooooooo            oooooooooooooooooooooooooooooooo",
"oooooooooooooooooooo            oooooooooooooooooooooooooooooooo",
"oooooooooooooooooooo            oooooooooooooooooooooooooooooooo"
};
