/* XPM */
static char *result[] = {
/* columns rows colors chars-per-pixel */
"64 64 4 1 ",
"  c #000001",
". c #F83808",
"X c #F89850",
"o c #B5FF52",
/* pixels */
"oooooooooooooooooooooooooooooooooooooooooooooooooooooooooooooooo",
"oooooooooooooooooooooooooooooooooooooooooooooooooooooooooooooooo",
"oooooooooooooooooooooooooooooooooooooooooooooooooooooooooooooooo",
"oooooooooooooooooooooooooooooooooooooooooooooooooooooooooooooooo",
"oooooooooooooooooooo                        oooooooooooooooooooo",
"oooooooooooooooooooo                        oooooooooooooooooooo",
"oooooooooooooooooooo                        oooooooooooooooooooo",
"oooooooooooooooooooo                        oooooooooooooooooooo",
"oooooooooooooooo    ........................    oooooooooooooooo",
"oooooooooooooooo    ........................    oooooooooooooooo",
"oooooooooooooooo    ........................    oooooooooooooooo",
"oooooooooooooooo    ........................    oooooooooooooooo",
"oooooooooooo    ................................    oooooooooooo",
"oooooooooooo    ................................    oooooooooooo",
"oooooooooooo    ................................    oooooooooooo",
"oooooooooooo    ................................    oooooooooooo",
"oooooooooooo    ............        ............    oooooooooooo",
"oooooooooooo    ............        ............    oooooooooooo",
"oooooooooooo    ............        ............    oooooooooooo",
"oooooooooooo    ............        ............    oooooooooooo",
"oooooooo        ........                ........        oooooooo",
"oooooooo        ........                ........        oooooooo",
"oooooooo        ........                ........        oooooooo",
"oooooooo        ........                ........        oooooooo",
"oooooooo                ................                oooooooo",
"oooooooo                ................                oooooooo",
"oooooooo                ................                oooooooo",
"oooooooo                ................                oooooooo",
"oooo    XXXX    XXXXXXXXXXXXXXXXXXXXXXXXXXXXXXXX    XXXX    oooo",
"oooo    XXXX    XXXXXXXXXXXXXXXXXXXXXXXXXXXXXXXX    XXXX    oooo",
"oooo    XXXX    XXXXXXXXXXXXXXXXXXXXXXXXXXXXXXXX    XXXX    oooo",
"oooo    XXXX    XXXXXXXXXXXXXXXXXXXXXXXXXXXXXXXX    XXXX    oooo",
"oooo    XXXXXXXXXXXXXXXX    XXXXXXXX    XXXXXXXXXXXXXXXX    oooo",
"oooo    XXXXXXXXXXXXXXXX    XXXXXXXX    XXXXXXXXXXXXXXXX    oooo",
"oooo    XXXXXXXXXXXXXXXX    XXXXXXXX    XXXXXXXXXXXXXXXX    oooo",
"oooo    XXXXXXXXXXXXXXXX    XXXXXXXX    XXXXXXXXXXXXXXXX    oooo",
"oooooooo        XXXXXXXX    XXXXXXXX    XXXXXXXX            oooo",
"oooooooo        XXXXXXXX    XXXXXXXX    XXXXXXXX            oooo",
"oooooooo        XXXXXXXX    XXXXXXXX    XXXXXXXX            oooo",
"oooooooo        XXXXXXXX    XXXXXXXX    XXXXXXXX            oooo",
"oooooooo            XXXXXXXX........XXXXXXXX        XXXX    oooo",
"oooooooo            XXXXXXXX........XXXXXXXX        XXXX    oooo",
"oooooooo            XXXXXXXX........XXXXXXXX        XXXX    oooo",
"oooooooo            XXXXXXXX........XXXXXXXX        XXXX    oooo",
"oooooooo    ....                            XXXX        oooooooo",
"oooooooo    ....                            XXXX        oooooooo",
"oooooooo    ....                            XXXX        oooooooo",
"oooooooo    ....                            XXXX        oooooooo",
"oooooooooooo    XXXXXXXX    XXXXXXXX........        oooooooooooo",
"oooooooooooo    XXXXXXXX    XXXXXXXX........        oooooooooooo",
"oooooooooooo    XXXXXXXX    XXXXXXXX........        oooooooooooo",
"oooooooooooo    XXXXXXXX    XXXXXXXX........        oooooooooooo",
"oooooooooooo    XXXXXXXX    ........            oooooooooooooooo",
"oooooooooooo    XXXXXXXX    ........            oooooooooooooooo",
"oooooooooooo    XXXXXXXX    ........            oooooooooooooooo",
"oooooooooooo    XXXXXXXX    ........            oooooooooooooooo",
"oooooooooooooooo                    ........    oooooooooooooooo",
"oooooooooooooooo                    ........    oooooooooooooooo",
"oooooooooooooooo                    ........    oooooooooooooooo",
"oooooooooooooooo                    ........    oooooooooooooooo",
"oooooooooooooooooooooooooooooooo            oooooooooooooooooooo",
"oooooooooooooooooooooooooooooooo            oooooooooooooooooooo",
"oooooooooooooooooooooooooooooooo            oooooooooooooooooooo",
"oooooooooooooooooooooooooooooooo            oooooooooooooooooooo"
};
